# MagicaVoxel @ Ephtracy

# group
o 

# material
mtllib terra2.mtl
usemtl palette

# normals
vn -1 0 0
vn 1 0 0
vn 0 0 1
vn 0 0 -1
vn 0 -1 0
vn 0 1 0

# texcoords
vt 0.966797 0.5
vt 0.974609 0.5
vt 0.982422 0.5
vt 0.994141 0.5

# verts
v -2 0 2
v -2 0 -2
v -2 1.2 2
v -2 1.2 -2
v -2 2.7 2
v -2 2.7 -2
v -2 3.9 1.7
v -2 3.9 -1.7
v -2 4 2
v -2 4 1.7
v -2 4 -1.7
v -2 4 -2
v 2 0 2
v 2 0 -2
v 2 1.2 2
v 2 1.2 -2
v 2 2.7 2
v 2 2.7 -2
v 2 3.9 1.7
v 2 3.9 -1.7
v 2 4 2
v 2 4 1.7
v 2 4 -1.7
v 2 4 -2
v -2 0 2
v -2 1.2 2
v -2 2.7 2
v -2 4 2
v -0.7 2.7 2
v -0.7 2.8 2
v -0.6 2.8 2
v -0.6 2.9 2
v -0.5 2.9 2
v -0.5 3 2
v -0.4 3 2
v -0.4 3.1 2
v 0.8 3 2
v 0.8 3.1 2
v 0.9 2.9 2
v 0.9 3 2
v 1 2.8 2
v 1 2.9 2
v 1.1 2.7 2
v 1.1 2.8 2
v 2 0 2
v 2 1.2 2
v 2 2.7 2
v 2 4 2
v -2 0 -2
v -2 1.2 -2
v -2 2.7 -2
v -2 4 -2
v -0.8 2.7 -2
v -0.8 2.8 -2
v -0.7 2.8 -2
v -0.7 2.9 -2
v -0.6 2.9 -2
v -0.6 3 -2
v -0.5 3 -2
v -0.5 3.1 -2
v 0.8 3 -2
v 0.8 3.1 -2
v 0.9 2.9 -2
v 0.9 3 -2
v 1 2.8 -2
v 1 2.9 -2
v 1.1 2.7 -2
v 1.1 2.8 -2
v 2 0 -2
v 2 1.2 -2
v 2 2.7 -2
v 2 4 -2
v -2 0 2
v 2 0 2
v -2 0 -2
v 2 0 -2
v -2 4 2
v 2 4 2
v -2 4 1.7
v -1.8 4 1.7
v -1.7 4 1.7
v -1.3 4 1.7
v -1.2 4 1.7
v -0.8 4 1.7
v -0.7 4 1.7
v -0.3 4 1.7
v -0.2 4 1.7
v 0.2 4 1.7
v 0.3 4 1.7
v 0.7 4 1.7
v 0.8 4 1.7
v 1.2 4 1.7
v 1.3 4 1.7
v 1.7 4 1.7
v 1.8 4 1.7
v 2 4 1.7
v -2 4 -1.7
v -1.8 4 -1.7
v -1.7 4 -1.7
v -1.3 4 -1.7
v -1.2 4 -1.7
v -0.8 4 -1.7
v -0.7 4 -1.7
v -0.3 4 -1.7
v -0.2 4 -1.7
v 0.2 4 -1.7
v 0.3 4 -1.7
v 0.7 4 -1.7
v 0.8 4 -1.7
v 1.2 4 -1.7
v 1.3 4 -1.7
v 1.7 4 -1.7
v 1.8 4 -1.7
v 2 4 -1.7
v -2 4 -2
v 2 4 -2

# faces
f 3/3/1 2/3/1 1/3/1
f 4/3/1 2/3/1 3/3/1
f 5/4/1 4/4/1 3/4/1
f 6/4/1 4/4/1 5/4/1
f 7/3/1 6/3/1 5/3/1
f 8/3/1 6/3/1 7/3/1
f 9/3/1 7/3/1 5/3/1
f 10/1/1 8/1/1 7/1/1
f 10/3/1 7/3/1 9/3/1
f 11/3/1 6/3/1 8/3/1
f 11/1/1 8/1/1 10/1/1
f 12/3/1 6/3/1 11/3/1
f 13/3/2 14/3/2 15/3/2
f 15/3/2 14/3/2 16/3/2
f 15/4/2 16/4/2 17/4/2
f 17/4/2 16/4/2 18/4/2
f 17/3/2 18/3/2 19/3/2
f 19/3/2 18/3/2 20/3/2
f 17/3/2 19/3/2 21/3/2
f 19/1/2 20/1/2 22/1/2
f 21/3/2 19/3/2 22/3/2
f 20/3/2 18/3/2 23/3/2
f 22/1/2 20/1/2 23/1/2
f 23/3/2 18/3/2 24/3/2
f 29/4/3 27/4/3 26/4/3
f 29/3/3 28/3/3 27/3/3
f 30/3/3 28/3/3 29/3/3
f 31/4/3 30/4/3 29/4/3
f 31/3/3 28/3/3 30/3/3
f 32/3/3 28/3/3 31/3/3
f 33/4/3 32/4/3 31/4/3
f 33/3/3 28/3/3 32/3/3
f 34/3/3 28/3/3 33/3/3
f 35/4/3 34/4/3 33/4/3
f 35/3/3 28/3/3 34/3/3
f 36/3/3 28/3/3 35/3/3
f 37/4/3 35/4/3 33/4/3
f 37/4/3 36/4/3 35/4/3
f 38/3/3 28/3/3 36/3/3
f 38/4/3 36/4/3 37/4/3
f 39/4/3 33/4/3 31/4/3
f 39/4/3 37/4/3 33/4/3
f 40/3/3 38/3/3 37/3/3
f 40/4/3 37/4/3 39/4/3
f 41/4/3 31/4/3 29/4/3
f 41/4/3 39/4/3 31/4/3
f 42/3/3 40/3/3 39/3/3
f 42/4/3 39/4/3 41/4/3
f 43/4/3 29/4/3 26/4/3
f 43/4/3 41/4/3 29/4/3
f 44/3/3 42/3/3 41/3/3
f 44/4/3 41/4/3 43/4/3
f 45/3/3 26/3/3 25/3/3
f 46/4/3 43/4/3 26/4/3
f 46/3/3 26/3/3 45/3/3
f 47/3/3 44/3/3 43/3/3
f 47/4/3 43/4/3 46/4/3
f 48/3/3 42/3/3 44/3/3
f 48/3/3 44/3/3 47/3/3
f 48/3/3 40/3/3 42/3/3
f 48/3/3 38/3/3 40/3/3
f 48/3/3 28/3/3 38/3/3
f 50/4/4 51/4/4 53/4/4
f 51/3/4 52/3/4 53/3/4
f 53/3/4 52/3/4 54/3/4
f 53/4/4 54/4/4 55/4/4
f 54/3/4 52/3/4 55/3/4
f 55/3/4 52/3/4 56/3/4
f 55/4/4 56/4/4 57/4/4
f 56/3/4 52/3/4 57/3/4
f 57/3/4 52/3/4 58/3/4
f 57/4/4 58/4/4 59/4/4
f 58/3/4 52/3/4 59/3/4
f 59/3/4 52/3/4 60/3/4
f 57/4/4 59/4/4 61/4/4
f 59/4/4 60/4/4 61/4/4
f 60/3/4 52/3/4 62/3/4
f 61/4/4 60/4/4 62/4/4
f 55/4/4 57/4/4 63/4/4
f 57/4/4 61/4/4 63/4/4
f 61/3/4 62/3/4 64/3/4
f 63/4/4 61/4/4 64/4/4
f 53/4/4 55/4/4 65/4/4
f 55/4/4 63/4/4 65/4/4
f 63/3/4 64/3/4 66/3/4
f 65/4/4 63/4/4 66/4/4
f 50/4/4 53/4/4 67/4/4
f 53/4/4 65/4/4 67/4/4
f 65/3/4 66/3/4 68/3/4
f 67/4/4 65/4/4 68/4/4
f 49/3/4 50/3/4 69/3/4
f 50/4/4 67/4/4 70/4/4
f 69/3/4 50/3/4 70/3/4
f 67/3/4 68/3/4 71/3/4
f 70/4/4 67/4/4 71/4/4
f 68/3/4 66/3/4 72/3/4
f 71/3/4 68/3/4 72/3/4
f 66/3/4 64/3/4 72/3/4
f 64/3/4 62/3/4 72/3/4
f 62/3/4 52/3/4 72/3/4
f 75/3/5 74/3/5 73/3/5
f 76/3/5 74/3/5 75/3/5
f 77/3/6 78/3/6 79/3/6
f 79/3/6 78/3/6 80/3/6
f 80/3/6 78/3/6 81/3/6
f 81/3/6 78/3/6 82/3/6
f 82/3/6 78/3/6 83/3/6
f 83/3/6 78/3/6 84/3/6
f 84/3/6 78/3/6 85/3/6
f 85/3/6 78/3/6 86/3/6
f 86/3/6 78/3/6 87/3/6
f 87/3/6 78/3/6 88/3/6
f 88/3/6 78/3/6 89/3/6
f 89/3/6 78/3/6 90/3/6
f 90/3/6 78/3/6 91/3/6
f 91/3/6 78/3/6 92/3/6
f 92/3/6 78/3/6 93/3/6
f 93/3/6 78/3/6 94/3/6
f 94/3/6 78/3/6 95/3/6
f 95/3/6 78/3/6 96/3/6
f 79/1/6 80/1/6 97/1/6
f 80/2/6 81/2/6 98/2/6
f 97/1/6 80/1/6 98/1/6
f 81/1/6 82/1/6 99/1/6
f 98/2/6 81/2/6 99/2/6
f 82/2/6 83/2/6 100/2/6
f 99/1/6 82/1/6 100/1/6
f 83/1/6 84/1/6 101/1/6
f 100/2/6 83/2/6 101/2/6
f 84/2/6 85/2/6 102/2/6
f 101/1/6 84/1/6 102/1/6
f 85/1/6 86/1/6 103/1/6
f 102/2/6 85/2/6 103/2/6
f 86/2/6 87/2/6 104/2/6
f 103/1/6 86/1/6 104/1/6
f 87/1/6 88/1/6 105/1/6
f 104/2/6 87/2/6 105/2/6
f 88/2/6 89/2/6 106/2/6
f 105/1/6 88/1/6 106/1/6
f 89/1/6 90/1/6 107/1/6
f 106/2/6 89/2/6 107/2/6
f 90/2/6 91/2/6 108/2/6
f 107/1/6 90/1/6 108/1/6
f 91/1/6 92/1/6 109/1/6
f 108/2/6 91/2/6 109/2/6
f 92/2/6 93/2/6 110/2/6
f 109/1/6 92/1/6 110/1/6
f 93/1/6 94/1/6 111/1/6
f 110/2/6 93/2/6 111/2/6
f 94/2/6 95/2/6 112/2/6
f 111/1/6 94/1/6 112/1/6
f 95/1/6 96/1/6 113/1/6
f 112/2/6 95/2/6 113/2/6
f 113/1/6 96/1/6 114/1/6
f 97/3/6 98/3/6 115/3/6
f 98/3/6 99/3/6 115/3/6
f 113/3/6 114/3/6 115/3/6
f 112/3/6 113/3/6 115/3/6
f 111/3/6 112/3/6 115/3/6
f 110/3/6 111/3/6 115/3/6
f 109/3/6 110/3/6 115/3/6
f 108/3/6 109/3/6 115/3/6
f 107/3/6 108/3/6 115/3/6
f 106/3/6 107/3/6 115/3/6
f 105/3/6 106/3/6 115/3/6
f 104/3/6 105/3/6 115/3/6
f 103/3/6 104/3/6 115/3/6
f 102/3/6 103/3/6 115/3/6
f 101/3/6 102/3/6 115/3/6
f 100/3/6 101/3/6 115/3/6
f 99/3/6 100/3/6 115/3/6
f 115/3/6 114/3/6 116/3/6
